<svg width="350" height="100" xmlns="http://www.w3.org/2000/svg">
 <defs>
  <linearGradient y2="0.499999" x2="1" y1="0.499999" x1="0" id="SVGID_1_">
   <stop stop-color="#115E93" offset="0"/>
   <stop stop-color="#2E719F" offset="0.2414"/>
   <stop stop-color="#8EAFC8" offset="0.6404"/>
   <stop stop-color="#ACC3D5" offset="1"/>
  </linearGradient>
 </defs>
 <g>
  <title>background</title>
  <rect fill="none" id="canvas_background" height="102" width="352" y="-1" x="-1"/>
 </g>
 <g>
  <title>Layer 1</title>
  <path id="svg_1" d="m169.812862,10.435905c-0.399,0.797 -3.165,-0.359 -3.165,-0.359c-5.022,-1.631 -10.402,-2.448 -15.995,-2.515c-27.417,-0.33 -42.165,18.733 -49.45,39.409c-0.157,0.445 -1.449,3.695 -1.8,4.841c-7.5,24.5 -21.08,46.25 -48.625,46.25s-49.875,-21.547 -49.875,-48.125c0,-26.579 22.33,-48.125 49.875,-48.125c7.034,0 13.969,0.891 19.797,3.94c8.953,4.685 13.506,10.31 15.256,17.06c0,0 0.088,1.083 -0.137,1.207s-1.039,-0.672 -1.039,-0.672c-7.247,-10.176 -20.741,-14.451 -34.502,-14.285c-20.75,0.25 -38.5,19.5 -38.5,39c0,21.424 15.213,37.165 37.417,37.169c9.875,0.002 24.583,-5.919 33,-26.832c1.531,-3.805 6.671,-17.669 9.504,-23.503l0.821,-1.506c7.408,-16.393 26.177,-31.578 47.966,-31.578c10.9,0 18.135,1.186 27.936,6.93c1.293,0.758 1.739,1.248 1.516,1.694zm-28.707,87.626c27.545,0 41.547,-21.75 49.047,-46.25c0.352,-1.146 1.644,-4.396 1.801,-4.841c7.285,-20.676 22.033,-39.739 49.449,-39.409c5.594,0.067 10.973,0.884 15.995,2.515c0,0 2.766,1.156 3.165,0.359c0.223,-0.446 -0.223,-0.937 -1.516,-1.694c-9.801,-5.744 -17.035,-6.93 -27.936,-6.93c-21.789,0 -40.559,15.185 -47.967,31.578l-0.82,1.506c-2.834,5.833 -7.974,19.698 -9.505,23.503c-3.853,9.571 -10.213,16.956 -15.636,21.116l-0.105,0.076c-11.688,8.645 -24.333,12.824 -41.949,3.415c-4.888,-2.612 -9.253,-5.771 -12.939,-9.474c0,0 -1.915,-2.26 -2.623,-1.754c-0.396,0.283 -0.224,0.91 0.574,2.155c6.045,9.432 11.876,13.757 21.461,18.732c6.172,3.203 12.774,4.903 19.352,5.377l0.152,0.02zm205.514,0.126c2.722,0.037 2.461,-5.579 2.461,-5.579c0.11,-7.904 -0.336,-17.501 -1.4,-27.802c-1.775,-17.17 -4.824,-32.124 -7.949,-40.339l-0.034,-0.134c-1.118,-2.514 -2.396,-4.871 -3.813,-7.043c-6.212,-9.518 -15.105,-15.479 -24.982,-15.479c-4.316,0 -8.217,1.333 -12.281,3.266l-0.124,0.067c-12.14,6.357 -21.66,17.473 -26.528,28.245l-0.82,1.506c-2.834,5.833 -7.973,19.698 -9.504,23.503c-3.854,9.571 -10.214,16.956 -15.637,21.116l-0.105,0.076c-11.688,8.645 -24.332,12.824 -41.948,3.415c-4.888,-2.612 -9.253,-5.771 -12.938,-9.474c0,0 -1.915,-2.26 -2.623,-1.754c-0.396,0.283 -0.225,0.91 0.574,2.155c6.045,9.432 11.875,13.757 21.461,18.732c6.172,3.203 12.773,4.903 19.352,5.377l0.15,0.019c27.546,0 41.547,-21.75 49.047,-46.25c0.352,-1.146 1.645,-4.396 1.801,-4.841c4.198,-11.914 10.874,-23.293 21.023,-30.734l0.148,-0.112c2.942,-2.299 6.14,-3.499 9.516,-3.499c8.591,0 16.178,8.208 20.729,20.739l0.167,0.42c3.806,9.746 7.681,23.882 9.667,41.527c0.606,5.393 1.104,10.616 1.491,15.571c-0.002,0.001 0.451,7.27 3.099,7.306z" fill="url(#SVGID_1_)"/>
 </g>
</svg>